<?xml version="1.0" encoding="UTF-8"?>
<svg width="29px" height="19px" viewBox="0 0 29 19" version="1.1" xmlns="http://www.w3.org/2000/svg" xmlns:xlink="http://www.w3.org/1999/xlink">
    <title>Flag_of_Canada 2</title>
    <g id="Page-1" stroke="none" stroke-width="1" fill="none" fill-rule="evenodd">
        <g id="Flag_of_Canada">
            <rect id="Rectangle" fill="#FF0000" x="0" y="0" width="29" height="19" rx="0.5"></rect>
            <path d="M7.25,0 L21.75,0 L21.75,19 L7.25,19 L7.25,0 Z M14.771875,15.3822917 L14.6359375,12.7753125 C14.6319347,12.6884741 14.6675098,12.6045017 14.7326766,12.5469671 C14.7978433,12.4894325 14.8855769,12.4645377 14.97125,12.4792708 L17.5661458,12.9354167 L17.2157292,11.96875 C17.1865793,11.8898891 17.210872,11.8012206 17.2761458,11.7482292 L20.11875,9.44635417 L19.4783333,9.14729167 C19.3888402,9.10500146 19.3448167,9.00271135 19.375625,8.90864583 L19.9375,7.18072917 L18.3002083,7.528125 C18.2087533,7.54719324 18.1165268,7.4991849 18.0796875,7.41333333 L17.7625,6.6671875 L16.4846875,8.03864583 C16.4246733,8.10194716 16.3300936,8.11806795 16.2524982,8.07822169 C16.1749029,8.03837543 16.1328968,7.95211596 16.149375,7.86645833 L16.765625,4.68854167 L15.7778125,5.25947917 C15.7309342,5.28695408 15.6747666,5.29377516 15.6226747,5.27831933 C15.5705828,5.2628635 15.5272245,5.22651273 15.5029167,5.17791667 L14.5,3.20833333 L13.4970833,5.17791667 C13.4727755,5.22651273 13.4294172,5.2628635 13.3773253,5.27831933 C13.3252334,5.29377516 13.2690658,5.28695408 13.2221875,5.25947917 L12.234375,4.68854167 L12.850625,7.86645833 C12.8671032,7.95211596 12.8250971,8.03837543 12.7475018,8.07822169 C12.6699064,8.11806795 12.5753267,8.10194716 12.5153125,8.03864583 L11.2375,6.6671875 L10.9203125,7.41333333 C10.8834732,7.4991849 10.7912467,7.54719324 10.6997917,7.528125 L9.0625,7.18072917 L9.624375,8.90864583 C9.65518335,9.00271135 9.61115976,9.10500146 9.52166667,9.14729167 L8.88125,9.44635417 L11.7238542,11.7482292 C11.789128,11.8012206 11.8134207,11.8898891 11.7842708,11.96875 L11.4338542,12.9354167 L14.02875,12.4792708 C14.1144231,12.4645377 14.2021567,12.4894325 14.2673234,12.5469671 C14.3324902,12.6045017 14.3680653,12.6884741 14.3640625,12.7753125 L14.228125,15.3822917 L14.771875,15.3822917 Z" id="Shape" fill="#FFFFFF" fill-rule="nonzero"></path>
        </g>
    </g>
</svg>