<svg xmlns="http://www.w3.org/2000/svg" version="1.0" width="740.000000pt" height="740.000000pt" viewBox="0 0 740.000000 740.000000" preserveAspectRatio="xMidYMid meet">
<metadata fill="#ff170a">
Created by potrace 1.16, written by Peter Selinger 2001-2019
</metadata>
<g transform="translate(0.000000,740.000000) scale(0.100000,-0.100000)" fill="#ff170a" stroke="none">
<path d="M40 7293 c289 -837 993 -1385 2240 -1744 250 -72 618 -161 885 -213 454 -88 799 -135 1605 -216 278 -28 548 -56 600 -63 l95 -12 3 -53 c4 -73 -32 -342 -67 -497 -139 -610 -405 -1080 -863 -1520 -272 -262 -566 -465 -956 -660 l-171 -86 18 -30 c35 -57 139 -183 198 -239 31 -30 49 -45 39 -32 -11 12 -17 24 -14 27 2 3 110 8 239 11 452 13 978 -30 1441 -117 357 -66 806 -200 1108 -329 314 -134 657 -331 886 -512 34 -26 65 -48 68 -48 3 0 6 1449 6 3220 l0 3220 -3595 0 -3596 0 11 -20 c18 -33 252 -238 395 -345 731 -547 1798 -903 3130 -1044 430 -46 687 -60 1182 -68 l411 -6 31 -106 c32 -108 64 -262 76 -361 l7 -55 -169 7 c-469 20 -1090 85 -1603 169 -1225 200 -2208 547 -2868 1011 -293 207 -565 484 -712 727 -41 67 -60 90 -76 91 -20 0 -20 -4 16 -107z m5900 -1477 c93 -71 254 -213 329 -289 l64 -66 18 -111 c78 -494 24 -1051 -157 -1610 -199 -615 -536 -1072 -1091 -1479 -40 -29 -76 -50 -81 -47 -9 6 -279 31 -427 41 -49 3 -123 8 -164 11 l-74 6 34 21 c297 180 506 343 729 566 418 419 682 904 808 1486 50 228 65 366 66 605 1 336 -45 597 -154 867 -18 43 -35 85 -38 93 -6 15 17 -1 138 -94z" fill="#ff170a"/>
<path d="M1917 3579 c-32 -60 -61 -109 -66 -109 -5 0 -34 11 -66 25 -32 14 -59 25 -60 23 -2 -2 5 -91 15 -198 10 -107 17 -196 15 -198 -2 -2 -42 29 -88 68 -47 40 -89 72 -93 72 -5 -1 -14 -22 -21 -47 -6 -26 -14 -49 -16 -52 -3 -2 -51 5 -107 17 -55 12 -104 20 -107 17 -2 -3 7 -61 21 -128 15 -67 25 -123 23 -125 -2 -2 -29 -12 -60 -21 l-57 -18 108 -85 c59 -46 148 -117 199 -157 l92 -73 -34 -74 c-19 -41 -29 -73 -22 -71 80 26 354 95 364 91 11 -5 14 -27 12 -98 -1 -62 2 -93 10 -96 8 -3 11 26 11 97 0 80 3 101 14 101 8 0 88 -20 178 -45 177 -49 193 -51 185 -32 -3 6 -17 38 -31 70 l-26 57 200 159 199 158 -60 17 c-32 9 -59 21 -59 26 0 6 12 63 26 126 14 64 23 118 21 121 -3 2 -51 -5 -107 -16 -56 -12 -106 -19 -110 -16 -5 3 -11 22 -15 43 -3 20 -9 43 -13 49 -5 7 -38 -15 -95 -64 -48 -41 -90 -73 -93 -71 -2 3 4 92 15 199 10 107 17 195 16 196 -1 2 -30 -9 -65 -23 -75 -30 -66 -37 -135 97 -25 49 -49 90 -53 93 -4 2 -33 -45 -65 -105z" fill="#ff170a"/>
<path d="M4115 1475 c78 -71 215 -170 285 -205 35 -18 93 -34 160 -45 58 -9 182 -33 275 -51 776 -158 1369 -395 1813 -725 111 -83 350 -319 402 -396 l35 -52 158 -1 157 0 0 145 0 145 -117 121 c-314 323 -659 541 -1193 752 -623 246 -1223 368 -1814 367 l-221 -1 60 -54z" fill="#ff170a"/>
</g>
</svg>