<svg xmlns="http://www.w3.org/2000/svg" version="1.1" xmlns:xlink="http://www.w3.org/1999/xlink" xmlns:svgjs="http://svgjs.dev/svgjs" width="2000" height="378" viewBox="0 0 2000 378"><g transform="matrix(1,0,0,1,-1.2121107537722082,-0.24156471170113036)"><svg viewBox="0 0 396 75" data-background-color="#ffffff" preserveAspectRatio="xMidYMid meet" height="378" width="2000" xmlns="http://www.w3.org/2000/svg" xmlns:xlink="http://www.w3.org/1999/xlink"><g id="tight-bounds" transform="matrix(1,0,0,1,0.239997929246897,0.04792950628990411)"><svg viewBox="0 0 395.52 74.90414098742019" height="74.90414098742019" width="395.52"><g><svg viewBox="0 0 512.4690708008808 97.05212260052942" height="74.90414098742019" width="395.52"><g transform="matrix(1,0,0,1,116.94907080088079,27.45557107640526)"><svg viewBox="0 0 395.52 42.140980447718896" height="42.140980447718896" width="395.52"><g id="textblocktransform"><svg viewBox="0 0 395.52 42.140980447718896" height="42.140980447718896" width="395.52" id="textblock"><g><svg viewBox="0 0 395.52 42.140980447718896" height="42.140980447718896" width="395.52"><g transform="matrix(1,0,0,1,0,0)"><svg width="395.52" viewBox="3.4000000953674316 -37 352.8699951171875 37.599998474121094" height="42.140980447718896" data-palette-color="#77d4fc"><path d="M4.1-33.2L3.4-36.45 9.2-36.45 9.2-3.75 24.3-3.75 24.3 0 4.1 0 4.1-33.2ZM42.05 0.55L42.05 0.55Q38 0.55 34.92-0.95 31.85-2.45 29.8-5.05 27.75-7.65 26.72-11.03 25.7-14.4 25.7-18.2L25.7-18.2Q25.7-22 26.72-25.38 27.75-28.75 29.77-31.38 31.8-34 34.9-35.48 38-36.95 42.1-36.95L42.1-36.95Q46.25-36.95 49.32-35.48 52.4-34 54.45-31.4 56.5-28.8 57.52-25.4 58.55-22 58.55-18.15L58.55-18.15Q58.55-14.35 57.5-10.98 56.45-7.6 54.4-5 52.35-2.4 49.27-0.93 46.2 0.55 42.05 0.55ZM42.15-3.15L42.15-3.15Q45.3-3.15 47.4-4.48 49.5-5.8 50.77-8 52.05-10.2 52.6-12.85 53.15-15.5 53.15-18.15L53.15-18.15Q53.15-20.8 52.6-23.45 52.05-26.1 50.77-28.3 49.5-30.5 47.37-31.85 45.25-33.2 42.15-33.2L42.15-33.2Q39.05-33.2 36.92-31.88 34.8-30.55 33.55-28.35 32.3-26.15 31.72-23.5 31.15-20.85 31.15-18.2L31.15-18.2Q31.15-15.55 31.72-12.9 32.3-10.25 33.55-8.03 34.8-5.8 36.92-4.48 39.05-3.15 42.15-3.15ZM72.8-36.45L77.55-36.45 90.19 0 84.59 0 80.5-12.1 68.75-12.1 64.59 0 60.09 0 72.8-36.45ZM79.25-15.8L74.64-29.8 70-15.8 79.25-15.8ZM94.34-36.45L100.94-36.45 116.54-12.5Q116.99-11.8 117.49-11.03 117.99-10.25 118.49-9.5L118.49-9.5Q118.44-10.35 118.37-11.25 118.29-12.15 118.29-13L118.29-13 118.29-36.45 122.49-36.45 122.49 0.25 119.04 0.25 100.89-27.45Q100.49-28.15 99.99-28.9 99.49-29.65 98.99-30.35L98.99-30.35Q99.09-29.55 99.14-28.7 99.19-27.85 99.19-27.05L99.19-27.05 99.19 0 95.04 0 95.04-33.2 94.34-36.45ZM140.59-36.95L140.59-36.95Q143.14-36.95 145.56-36.25 147.99-35.55 150.14-34.2L150.14-34.2 147.64-30.65Q146.09-31.8 144.27-32.48 142.44-33.15 140.54-33.15L140.54-33.15Q138.04-33.15 136.24-31.9 134.44-30.65 134.44-27.9L134.44-27.9Q134.44-26.3 135.27-25.2 136.09-24.1 137.49-23.28 138.89-22.45 140.59-21.65L140.59-21.65Q142.34-20.85 144.16-19.9 145.99-18.95 147.54-17.68 149.09-16.4 150.02-14.58 150.94-12.75 150.94-10.1L150.94-10.1Q150.94-6.45 149.19-4.08 147.44-1.7 144.56-0.55 141.69 0.6 138.39 0.6L138.39 0.6Q135.59 0.6 132.97-0.13 130.34-0.85 127.89-2.15L127.89-2.15 129.79-6.55Q131.49-5.1 133.81-4.17 136.14-3.25 138.34-3.25L138.34-3.25Q139.99-3.25 141.64-3.88 143.29-4.5 144.39-5.85 145.49-7.2 145.49-9.3L145.49-9.3Q145.49-11.4 144.44-12.78 143.39-14.15 141.72-15.13 140.04-16.1 138.14-16.95L138.14-16.95Q136.49-17.75 134.87-18.6 133.24-19.45 131.89-20.6 130.54-21.75 129.74-23.38 128.94-25 128.94-27.25L128.94-27.25Q128.94-30.5 130.64-32.65 132.34-34.8 135.02-35.88 137.69-36.95 140.59-36.95ZM171.19 0.6L171.19 0.6Q166.89 0.6 163.74-0.88 160.59-2.35 158.51-4.95 156.44-7.55 155.44-10.85 154.44-14.15 154.44-17.7L154.44-17.7Q154.44-21.5 155.54-24.98 156.64-28.45 158.81-31.15 160.99-33.85 164.19-35.43 167.39-37 171.59-37L171.59-37Q173.34-37 175.44-36.58 177.54-36.15 179.49-35.33 181.44-34.5 182.69-33.1L182.69-33.1 179.84-29.85Q178.44-31.45 176.04-32.33 173.64-33.2 171.54-33.2L171.54-33.2Q168.64-33.2 166.49-31.9 164.34-30.6 162.89-28.4 161.44-26.2 160.71-23.5 159.99-20.8 159.99-17.95L159.99-17.95Q159.99-13.45 161.41-10.18 162.84-6.9 165.44-5.15 168.04-3.4 171.59-3.4L171.59-3.4Q173.69-3.4 176.11-4 178.54-4.6 181.14-5.9L181.14-5.9 182.79-2.85Q181.24-1.75 179.24-1 177.24-0.25 175.16 0.18 173.09 0.6 171.19 0.6ZM187.69-33.2L186.99-36.45 192.79-36.45 192.79-3.75 207.89-3.75 207.89 0 187.69 0 187.69-33.2ZM212.73-36.45L212.73-36.45 218.53-36.45 218.53 0 213.43 0 213.43-33.2Q213.43-33.25 213.26-33.98 213.08-34.7 212.93-35.5 212.78-36.3 212.73-36.45ZM241.48 0.6L241.48 0.6Q237.18 0.6 234.03-0.88 230.88-2.35 228.81-4.95 226.73-7.55 225.73-10.85 224.73-14.15 224.73-17.7L224.73-17.7Q224.73-21.5 225.83-24.98 226.93-28.45 229.11-31.15 231.28-33.85 234.48-35.43 237.68-37 241.88-37L241.88-37Q243.63-37 245.73-36.58 247.83-36.15 249.78-35.33 251.73-34.5 252.98-33.1L252.98-33.1 250.13-29.85Q248.73-31.45 246.33-32.33 243.93-33.2 241.83-33.2L241.83-33.2Q238.93-33.2 236.78-31.9 234.63-30.6 233.18-28.4 231.73-26.2 231.01-23.5 230.28-20.8 230.28-17.95L230.28-17.95Q230.28-13.45 231.71-10.18 233.13-6.9 235.73-5.15 238.33-3.4 241.88-3.4L241.88-3.4Q243.98-3.4 246.41-4 248.83-4.6 251.43-5.9L251.43-5.9 253.08-2.85Q251.53-1.75 249.53-1 247.53-0.25 245.46 0.18 243.38 0.6 241.48 0.6ZM257.98-33.2L257.28-36.45 263.08-36.45 263.08-20.15 277.08-36.45 282.23-36.45 268.43-20.3 283.18 0 276.93 0 263.08-18.85 263.08 0 257.98 0 257.98-33.2ZM291.83-2.9L291.83-2.9Q291.83-1.5 290.83-0.5 289.83 0.5 288.43 0.5L288.43 0.5Q287.03 0.5 286-0.5 284.98-1.5 284.98-2.9L284.98-2.9Q284.98-4.35 285.98-5.33 286.98-6.3 288.43-6.3L288.43-6.3Q289.83-6.3 290.83-5.3 291.83-4.3 291.83-2.9ZM313.22 0.6L313.22 0.6Q308.92 0.6 305.77-0.88 302.62-2.35 300.55-4.95 298.47-7.55 297.47-10.85 296.47-14.15 296.47-17.7L296.47-17.7Q296.47-21.5 297.57-24.98 298.67-28.45 300.85-31.15 303.02-33.85 306.22-35.43 309.42-37 313.62-37L313.62-37Q315.37-37 317.47-36.58 319.57-36.15 321.52-35.33 323.47-34.5 324.72-33.1L324.72-33.1 321.87-29.85Q320.47-31.45 318.07-32.33 315.67-33.2 313.57-33.2L313.57-33.2Q310.67-33.2 308.52-31.9 306.37-30.6 304.92-28.4 303.47-26.2 302.75-23.5 302.02-20.8 302.02-17.95L302.02-17.95Q302.02-13.45 303.45-10.18 304.87-6.9 307.47-5.15 310.07-3.4 313.62-3.4L313.62-3.4Q315.72-3.4 318.15-4 320.57-4.6 323.17-5.9L323.17-5.9 324.82-2.85Q323.27-1.75 321.27-1 319.27-0.25 317.2 0.18 315.12 0.6 313.22 0.6ZM338.87-36.45L343.62-36.45 356.27 0 350.67 0 346.57-12.1 334.82-12.1 330.67 0 326.17 0 338.87-36.45ZM345.32-15.8L340.72-29.8 336.07-15.8 345.32-15.8Z" opacity="1" transform="matrix(1,0,0,1,0,0)" fill="#ffffff" class="undefined-text-0" data-fill-palette-color="primary" id="text-0"></path></svg></g></svg></g></svg></g></svg></g><g><svg viewBox="0 0 97.05212260052942 97.05212260052942" height="97.05212260052942" width="97.05212260052942"><g><svg></svg></g><g id="icon-0"><svg viewBox="0 0 97.05212260052942 97.05212260052942" height="97.05212260052942" width="97.05212260052942"><g><path d="M0 48.526c0-26.8 21.726-48.526 48.526-48.526 26.8 0 48.526 21.726 48.526 48.526 0 26.8-21.726 48.526-48.526 48.526-26.8 0-48.526-21.726-48.526-48.526zM48.526 93.252c24.701 0 44.726-20.024 44.726-44.726 0-24.701-20.024-44.726-44.726-44.726-24.701 0-44.726 20.024-44.726 44.726 0 24.701 20.024 44.726 44.726 44.726z" data-fill-palette-color="accent" fill="#ffffff" stroke="transparent"></path></g><g transform="matrix(1,0,0,1,25.666091214563032,25.542137896606665)"><svg viewBox="0 0 45.71994017140335 45.967846807316086" height="45.967846807316086" width="45.71994017140335"><g><svg xmlns="http://www.w3.org/2000/svg" xmlns:xlink="http://www.w3.org/1999/xlink" version="1.1" x="0" y="0" viewBox="2.499375820159912 0.9818968176841736 95.50027465820312 96.01810455322266" enable-background="new 0 0 100 100" xml:space="preserve" height="45.967846807316086" width="45.71994017140335" class="icon-s-0" data-fill-palette-color="accent" id="s-0"><g fill="#77d4fc" data-fill-palette-color="accent"><path d="M87 97c-0.043 0-0.085-0.001-0.128-0.004-0.533-0.034-1.03-0.28-1.381-0.684L67.632 75.775c-6.961 17.227-7.043 17.226-8.629 17.226-0.318 0-0.635-0.077-0.918-0.223-0.425-0.219-0.757-0.581-0.938-1.023C34.878 37.094 35.18 36.115 35.445 35.252c0.258-0.839 1.125-1.443 2.002-1.443 1.246 0 6.232 1.599 51.295 20.701 2.426 1.028 3.997 1.695 4.311 1.821 0.106 0.039 0.21 0.086 0.307 0.141 0.787 0.444 1.18 1.361 0.956 2.237-0.21 0.824-0.917 1.42-1.754 1.497-1.265 0.364-7.69 2.917-14.093 5.532l18.977 19.881c0.375 0.393 0.574 0.921 0.552 1.463-0.021 0.542-0.264 1.052-0.669 1.413l-9 8C87.962 96.821 87.488 97 87 97zM67 70c0.573 0 1.126 0.247 1.509 0.688l18.674 21.475 5.939-5.28L73.554 66.381c-0.456-0.478-0.647-1.149-0.51-1.796 0.137-0.646 0.584-1.183 1.194-1.435 6.015-2.477 9.983-4.069 12.622-5.095C62.388 47.683 46.827 41.249 40.414 38.85c3.041 8.283 11.814 30.17 18.69 47.098 1.565-3.703 3.907-9.411 6.042-14.696 0.261-0.646 0.838-1.108 1.524-1.224C66.78 70.009 66.891 70 67 70z" fill="#ffffff" data-fill-palette-color="accent"></path></g><g fill="#77d4fc" data-fill-palette-color="accent"><path d="M21.958 22.942c-0.64 0-1.28-0.244-1.768-0.732l-8.287-8.289c-0.976-0.977-0.976-2.559 0-3.536 0.977-0.976 2.559-0.976 3.536 0l8.287 8.289c0.976 0.977 0.976 2.559 0 3.536C23.237 22.698 22.597 22.942 21.958 22.942z" fill="#ffffff" data-fill-palette-color="accent"></path></g><g fill="#77d4fc" data-fill-palette-color="accent"><path d="M16.322 32.706c-0.214 0-0.432-0.028-0.649-0.086L4.353 29.585c-1.333-0.357-2.125-1.728-1.767-3.062 0.357-1.334 1.728-2.125 3.062-1.767l11.321 3.035c1.333 0.357 2.125 1.728 1.767 3.062C18.436 31.969 17.426 32.706 16.322 32.706z" fill="#ffffff" data-fill-palette-color="accent"></path></g><g fill="#77d4fc" data-fill-palette-color="accent"><path d="M4.999 47.011c-1.104 0-2.114-0.737-2.414-1.854-0.357-1.334 0.435-2.705 1.768-3.062l11.321-3.032c1.336-0.354 2.705 0.436 3.062 1.768 0.357 1.334-0.435 2.705-1.768 3.062L5.647 46.926C5.43 46.983 5.212 47.011 4.999 47.011z" fill="#ffffff" data-fill-palette-color="accent"></path></g><g fill="#77d4fc" data-fill-palette-color="accent"><path d="M13.669 62.028c-0.64 0-1.28-0.244-1.768-0.732-0.976-0.977-0.976-2.56 0-3.535l8.289-8.287c0.977-0.977 2.559-0.976 3.536 0 0.976 0.977 0.976 2.56 0 3.535l-8.289 8.286C14.948 61.784 14.309 62.028 13.669 62.028z" fill="#ffffff" data-fill-palette-color="accent"></path></g><g fill="#77d4fc" data-fill-palette-color="accent"><path d="M28.688 70.699c-0.214 0-0.432-0.028-0.649-0.086-1.333-0.357-2.125-1.729-1.767-3.062l3.035-11.32c0.358-1.333 1.731-2.119 3.062-1.768 1.333 0.357 2.125 1.729 1.767 3.062l-3.035 11.32C30.802 69.962 29.792 70.699 28.688 70.699z" fill="#ffffff" data-fill-palette-color="accent"></path></g><g fill="#77d4fc" data-fill-palette-color="accent"><path d="M58.394 32.706c-1.104 0-2.113-0.736-2.413-1.853-0.357-1.333 0.434-2.705 1.768-3.062l11.319-3.035c1.331-0.356 2.704 0.433 3.062 1.767 0.357 1.333-0.434 2.705-1.768 3.062L59.043 32.62C58.826 32.678 58.608 32.706 58.394 32.706z" fill="#ffffff" data-fill-palette-color="accent"></path></g><g fill="#77d4fc" data-fill-palette-color="accent"><path d="M52.759 22.941c-0.64 0-1.279-0.244-1.768-0.732-0.977-0.976-0.977-2.559 0-3.536l8.286-8.289c0.977-0.977 2.56-0.976 3.536 0 0.977 0.976 0.977 2.559 0.001 3.536l-8.286 8.289C54.039 22.697 53.398 22.941 52.759 22.941z" fill="#ffffff" data-fill-palette-color="accent"></path></g><g fill="#77d4fc" data-fill-palette-color="accent"><path d="M42.997 17.304c-0.214 0-0.432-0.027-0.648-0.085-1.333-0.357-2.125-1.728-1.768-3.062l3.032-11.321c0.357-1.333 1.726-2.125 3.062-1.768 1.333 0.357 2.125 1.728 1.768 3.062L45.41 15.45C45.111 16.567 44.101 17.304 42.997 17.304z" fill="#ffffff" data-fill-palette-color="accent"></path></g><g fill="#77d4fc" data-fill-palette-color="accent"><path d="M31.72 17.304c-1.104 0-2.114-0.736-2.413-1.853L26.272 4.13c-0.358-1.333 0.434-2.705 1.767-3.062 1.333-0.358 2.705 0.433 3.062 1.767l3.035 11.321c0.358 1.333-0.434 2.705-1.767 3.062C32.152 17.276 31.935 17.304 31.72 17.304z" fill="#ffffff" data-fill-palette-color="accent"></path></g></svg></g></svg></g></svg></g></svg></g></svg></g><defs></defs></svg><rect width="395.52" height="74.90414098742019" fill="none" stroke="none" visibility="hidden"></rect></g></svg></g></svg>