<svg width="43" height="43" xmlns="http://www.w3.org/2000/svg"><path d="M21.684 42.527c5.784 0 10.73-2.054 14.838-6.162 4.108-4.108 6.162-9.054 6.162-14.838 0-5.784-2.054-10.73-6.162-14.838C32.414 2.581 27.468.527 21.684.527 15.9.527 10.954 2.581 6.846 6.69 2.738 10.797.684 15.743.684 21.527c0 5.784 2.054 10.73 6.162 14.838 4.108 4.108 9.054 6.162 14.838 6.162zm0-4.14c-4.601 0-8.561-1.66-11.88-4.98-3.32-3.319-4.98-7.279-4.98-11.88 0-4.6 1.66-8.56 4.98-11.88 3.319-3.32 7.279-4.979 11.88-4.979 4.6 0 8.56 1.66 11.88 4.98 3.32 3.318 4.979 7.278 4.979 11.88 0 4.6-1.66 8.56-4.98 11.88-3.318 3.319-7.278 4.979-11.88 4.979zm8.971-8.085l1.578-2.662-9.465-5.62V10.978h-3.155v12.62l11.042 6.704z" fill="#46C8B8" fill-rule="nonzero"/></svg>