<svg xmlns="http://www.w3.org/2000/svg" width="65" height="64" fill="none"><rect x=".6" width="64" height="64" rx="32" fill="#F4F8FA"></rect><path fill-rule="evenodd" clip-rule="evenodd" d="M48.6 15.5v5.81l-2.379-2.412L42.62 22.5l-1.02-1.02 3.602-3.601-2.413-2.379H48.6zm-8.125 24.188c1.875-2 2.813-4.396 2.813-7.188 0-2.208-.625-4.208-1.875-6-1.209-1.792-2.813-3.083-4.813-3.875v.563c0 .708-.27 1.333-.812 1.875-.542.5-1.167.75-1.875.75h-2.625V28.5c0 .375-.146.688-.438.938-.25.25-.562.375-.937.375h-2.625V32.5h8c.375 0 .687.125.937.375s.375.563.375.938v4h1.313c1.25 0 2.104.624 2.562 1.874zm-9.187 3.374V40.5c-.709 0-1.334-.27-1.875-.813-.542-.541-.813-1.166-.813-1.874V36.5l-6.375-6.375a9.802 9.802 0 0 0-.312 2.375c0 2.708.895 5.063 2.687 7.063 1.833 2 4.063 3.166 6.688 3.5zm-8.125-19.937c2.625-2.625 5.77-3.938 9.437-3.938s6.792 1.313 9.375 3.938c2.625 2.583 3.938 5.708 3.938 9.375s-1.313 6.813-3.938 9.438c-2.583 2.583-5.708 3.874-9.375 3.874s-6.812-1.291-9.437-3.874c-2.584-2.626-3.875-5.771-3.875-9.438 0-3.667 1.291-6.792 3.875-9.375zM15.6 42.689V48.5h5.81l-2.412-2.379L22.6 42.52 21.58 41.5l-3.601 3.602-2.379-2.413zm1-27.189v5.81l2.379-2.412L22.58 22.5l1.02-1.02-3.603-3.601 2.413-2.379H16.6zm33 27.19v5.81h-5.81l2.412-2.379L42.6 42.52l1.02-1.019 3.602 3.602 2.378-2.413z" fill="#2E9C8E"></path></svg>