<svg xmlns="http://www.w3.org/2000/svg" width="64" height="64" viewBox="0 0 64 64" fill="none"><rect x="2.28882e-05" width="64" height="64" rx="32" fill="#F4F8FA"></rect><path fill-rule="evenodd" clip-rule="evenodd" d="M51.7127 32.7321C52.0642 32.7321 52.4157 32.9518 52.5915 33.2594C52.7672 33.567 52.7672 33.9624 52.5475 34.2261L48.3293 40.8171C48.1535 41.0807 47.8459 41.2565 47.4944 41.2565C47.1429 41.2565 46.8353 41.1247 46.6595 40.8171L42.4413 34.2261C42.2216 33.9185 42.2216 33.523 42.3973 33.2154C42.5731 32.9079 42.9246 32.6882 43.2762 32.6882H46.4398V31.8094C46.4398 23.7244 39.8928 17.1773 31.8078 17.1773C28.3365 17.1773 24.997 18.4076 22.3606 20.6485C21.9651 21.0001 21.306 20.9561 20.9545 20.5167C20.603 20.1213 20.6469 19.4622 21.0863 19.1106C24.1182 16.606 27.941 15.2 31.8517 15.2C41.0352 15.2 48.505 22.6698 48.505 31.8533V32.7321H51.7127ZM31.8517 46.5293C35.323 46.5293 38.6624 45.299 41.2988 43.058C41.7382 42.6626 42.3534 42.7505 42.7489 43.2338C43.1004 43.6293 43.0564 44.2884 42.617 44.6399C39.5852 47.1445 35.7624 48.5506 31.8517 48.5506C22.6682 48.5506 15.1984 41.0807 15.1984 31.8972V31.0184H11.9907C11.6392 31.0184 11.2877 30.7987 11.1119 30.4911C10.9362 30.1836 10.9801 29.7881 11.1559 29.4805L15.3741 22.8895C15.7256 22.3183 16.6923 22.3183 17.0438 22.8895L21.2621 29.4805C21.4818 29.7881 21.4818 30.1836 21.306 30.4911C21.1303 30.7987 20.7788 31.0184 20.4272 31.0184H17.2196V31.8972C17.2196 39.9822 23.7667 46.5293 31.8517 46.5293Z" fill="#2E9C8E"></path><path d="M31.864 38.384C30.4773 38.384 29.352 38.1067 28.488 37.552C27.624 36.992 27.128 36.1307 27 34.968L29.432 34.92C29.56 35.448 29.8347 35.8507 30.256 36.128C30.6827 36.4 31.216 36.536 31.856 36.536C32.24 36.536 32.5787 36.4747 32.872 36.352C33.1707 36.224 33.4053 36.0533 33.576 35.84C33.7467 35.6213 33.832 35.3733 33.832 35.096C33.832 34.6693 33.696 34.352 33.424 34.144C33.152 33.9307 32.7333 33.76 32.168 33.632L30.272 33.224C29.392 33.048 28.6853 32.6987 28.152 32.176C27.624 31.648 27.3547 30.9413 27.344 30.056C27.3387 29.3307 27.5333 28.704 27.928 28.176C28.328 27.6427 28.8693 27.232 29.552 26.944C30.24 26.656 31.0107 26.512 31.864 26.512C32.7387 26.512 33.4933 26.6693 34.128 26.984C34.768 27.2933 35.2587 27.712 35.6 28.24C35.9467 28.7627 36.1147 29.3413 36.104 29.976L33.744 30.016C33.6693 29.504 33.4987 29.1013 33.232 28.808C32.9653 28.5147 32.5227 28.368 31.904 28.368C31.584 28.368 31.2987 28.4027 31.048 28.472C30.7973 28.5413 30.5813 28.64 30.4 28.768C30.2187 28.8907 30.08 29.0373 29.984 29.208C29.8933 29.3787 29.848 29.5707 29.848 29.784C29.848 30.12 29.96 30.3867 30.184 30.584C30.4133 30.776 30.8427 30.9547 31.472 31.12L33.336 31.576C34.3867 31.8267 35.144 32.256 35.608 32.864C36.0773 33.472 36.312 34.2107 36.312 35.08C36.312 35.7467 36.128 36.328 35.76 36.824C35.3973 37.32 34.8827 37.704 34.216 37.976C33.5493 38.248 32.7653 38.384 31.864 38.384ZM30.864 25H32.888V27.08H30.864V25ZM30.824 37.672H32.84V39.752H30.824V37.672Z" fill="#2E9C8E"></path></svg>