<?xml version="1.0" encoding="UTF-8"?>
<svg width="72px" height="72px" viewBox="0 0 72 72" version="1.1" xmlns="http://www.w3.org/2000/svg" xmlns:xlink="http://www.w3.org/1999/xlink">
    <title>Group 24</title>
    <g id="Desktop" stroke="none" stroke-width="1" fill="none" fill-rule="evenodd">
        <g id="Secured-business-loans" transform="translate(-131.000000, -1221.000000)">
            <g id="Group-23" transform="translate(81.000000, 1190.000000)">
                <g id="Group-24" transform="translate(50.000000, 31.000000)">
                    <circle id="Oval" fill="#EDFAF8" cx="36" cy="36" r="36"></circle>
                    <g id="Group-16" transform="translate(18.500000, 16.491632)" fill="#2E9C8E" fill-rule="nonzero">
                        <path d="M33.0029586,18.1573881 C33.9556213,17.6016965 34.5,16.5597748 34.3639053,15.3094687 C34.1597633,13.8507783 32.8668639,12.8088566 31.3698225,12.8088566 L22.3195266,12.8088566 C22.387574,12.6004723 22.4556213,12.3920879 22.591716,12.1142422 C23.1360947,10.7250132 24.1568047,8.08547821 24.1568047,5.44594321 C24.1568047,2.45910097 22.1153846,0.653103341 20.6863905,0.514180446 C19.8017751,0.444718999 19.1213018,1.00041058 18.9852071,2.04233229 C18.7130178,3.91779137 17.4881657,6.69624926 17.0118343,7.80763242 C16.8757396,8.15493966 16.6715976,8.43278545 16.4674556,8.71063124 C15.6508876,9.6830915 13.5414201,12.0447807 11.5680473,13.4340097 C11.5680473,13.5034711 11.5680473,13.5729326 11.5680473,13.7118554 L11.5680473,31.493986 C11.5680473,31.6329089 11.5680473,31.7718318 11.5,31.9802161 C14.9023669,33.0221378 18.0325444,33.5083679 21.3668639,33.5083679 L29.1242604,33.5083679 C30.4852071,33.5083679 31.7100592,32.6053691 31.9822485,31.2161402 C32.1863905,30.104757 31.7781065,29.0628353 31.0976331,28.4376823 C32.3224852,28.1598365 33.2751479,26.9789919 33.2751479,25.6592244 C33.2751479,24.825687 32.8668639,23.9921497 32.3224852,23.5059195 C33.5473373,23.2280737 34.5,22.0472291 34.5,20.7274616 C34.4319527,19.546617 33.887574,18.6436182 33.0029586,18.1573881 Z" id="Path"></path>
                        <path d="M7.96666667,12.5083679 L2.03333333,12.5083679 C1.23333333,12.5083679 0.5,13.2037322 0.5,14.1077057 L0.5,31.9090302 C0.5,32.7434673 1.16666667,33.5083679 2.03333333,33.5083679 L7.96666667,33.5083679 C8.76666667,33.5083679 9.5,32.8130037 9.5,31.9090302 L9.5,14.1077057 C9.43333333,13.2732686 8.76666667,12.5083679 7.96666667,12.5083679 Z M4.96666667,30.6573746 C4.1,30.6573746 3.36666667,29.8924739 3.36666667,28.9885004 C3.36666667,28.0845269 4.1,27.3196262 4.96666667,27.3196262 C5.83333333,27.3196262 6.56666667,28.0845269 6.56666667,28.9885004 C6.56666667,29.9620103 5.83333333,30.6573746 4.96666667,30.6573746 Z" id="Shape"></path>
                    </g>
                </g>
            </g>
        </g>
    </g>
</svg>