<?xml version="1.0" encoding="UTF-8"?>
<svg width="276px" height="174px" viewBox="0 0 276 174" version="1.1" xmlns="http://www.w3.org/2000/svg" xmlns:xlink="http://www.w3.org/1999/xlink">
    <title>Group 60</title>
    <g id="Symbols" stroke="none" stroke-width="1" fill="none" fill-rule="evenodd">
        <g id="UI-/-Modules-/-How-it-works-curve" transform="translate(-587.000000, -475.000000)">
            <g id="3" transform="translate(51.000000, 475.000000)">
                <g id="Group-57" transform="translate(536.000000, -0.000000)">
                    <g id="Group-55" transform="translate(29.000000, 16.000000)" fill="#FFFFFF" stroke="#CED7DE" stroke-width="0.5">
                        <rect id="Rectangle-Copy-3" opacity="0.4" x="0.25" y="13.25" width="222.5" height="118.5" rx="8"></rect>
                        <rect id="Rectangle" x="24.25" y="0.25" width="173.5" height="146.5" rx="8"></rect>
                    </g>
                    <g id="Group-58" transform="translate(115.000000, 52.000000)">
                        <rect id="Rectangle-Copy-5" fill="#E8EFF8" x="12" y="62" width="25.5549296" height="3.24526829"></rect>
                        <g id="Group-56">
                            <circle id="Oval" fill="#D8F3F0" cx="25" cy="25" r="25"></circle>
                            <g id="noun_Check_1870817" transform="translate(15.000000, 18.000000)" fill="#319C8E">
                                <polygon id="Path" points="17.5867114 0 8.06916757 9.31663996 3.41328857 4.75894011 0 8.10064012 8.06723974 16 21 3.34046026"></polygon>
                            </g>
                        </g>
                    </g>
                    <g id="Group-54" transform="translate(153.000000, 0.000000)">
                        <rect id="Rectangle" fill="#319C8E" x="0" y="0" width="123" height="31.8" rx="8"></rect>
                        <g id="Group-11" transform="translate(4.400000, 8.300000)" fill="#FFFFFF" font-family="PublicSans-Regular, Public Sans" font-size="12" font-weight="normal">
                            <text id="$780.00">
                                <tspan x="34.887" y="11">$780.00</tspan>
                            </text>
                        </g>
                    </g>
                    <g id="Group-59" transform="translate(0.000000, 142.000000)">
                        <rect id="Rectangle" fill="#EA4D5C" x="0" y="0" width="123" height="31.8" rx="8"></rect>
                        <path d="M36.546,17.342 L39.588,17.336 L39.588,16.46 L36.546,16.472 L36.546,17.342 Z M44.886,21.254 L44.886,20.098 L44.9101224,20.0952653 C45.2382857,20.0622857 45.5426122,19.9963265 45.823102,19.8973878 L46.029,19.817 C46.499,19.615 46.864,19.337 47.124,18.983 C47.384,18.629 47.514,18.222 47.514,17.762 C47.514,17.198 47.357,16.701 47.043,16.271 C46.729,15.841 46.204,15.524 45.468,15.32 L45.468,15.32 L44.028,14.912 C43.456,14.736 43.06,14.557 42.84,14.375 C42.62,14.193 42.51,13.946 42.51,13.634 C42.51,13.39 42.564,13.176 42.672,12.992 C42.78,12.808 42.925,12.654 43.107,12.53 C43.289,12.406 43.495,12.313 43.725,12.251 C43.955,12.189 44.194,12.158 44.442,12.158 C44.966,12.158 45.373,12.291 45.663,12.557 C45.953,12.823 46.142,13.214 46.23,13.73 L46.23,13.73 L47.358,13.67 C47.342,13.23 47.215,12.824 46.977,12.452 C46.739,12.08 46.405,11.781 45.975,11.555 C45.7292857,11.4258571 45.4571224,11.3336122 45.1585102,11.2782653 L44.958,11.248 L44.958,10.028 L43.932,10.028 L43.932,11.242 C43.6037551,11.276585 43.2993878,11.3457959 43.018898,11.4496327 L42.813,11.534 C42.343,11.746 41.975,12.042 41.709,12.422 C41.443,12.802 41.312,13.242 41.316,13.742 C41.32,14.334 41.51,14.806 41.886,15.158 C42.262,15.51 42.772,15.768 43.416,15.932 L43.416,15.932 L44.91,16.322 C45.402,16.454 45.761,16.634 45.987,16.862 C46.213,17.09 46.326,17.394 46.326,17.774 C46.326,18.058 46.235,18.304 46.053,18.512 C45.871,18.72 45.633,18.882 45.339,18.998 C45.045,19.114 44.73,19.172 44.394,19.172 C43.834,19.172 43.362,19.05 42.978,18.806 C42.594,18.562 42.338,18.196 42.21,17.708 L42.21,17.708 L41.046,17.78 C41.162,18.552 41.521,19.135 42.123,19.529 C42.5444,19.8048 43.04273,19.98407 43.61799,20.06681 L43.86,20.096 L43.86,21.254 L44.886,21.254 Z M54.792,20 L54.792,19.016 L50.214,19.016 L50.214,18.842 C50.214,18.51 50.296,18.224 50.46,17.984 C50.624,17.744 50.84,17.531 51.108,17.345 C51.376,17.159 51.672,16.981 51.996,16.811 C52.32,16.641 52.642,16.464 52.962,16.28 C53.282,16.096 53.577,15.887 53.847,15.653 C54.117,15.419 54.334,15.142 54.498,14.822 C54.662,14.502 54.744,14.118 54.744,13.67 C54.744,13.178 54.627,12.747 54.393,12.377 C54.159,12.007 53.828,11.719 53.4,11.513 C52.972,11.307 52.468,11.204 51.888,11.204 C51.22,11.204 50.658,11.328 50.202,11.576 C49.746,11.824 49.4,12.155 49.164,12.569 C48.928,12.983 48.804,13.44 48.792,13.94 L48.792,13.94 L49.896,13.94 C49.94,13.408 50.134,12.982 50.478,12.662 C50.822,12.342 51.278,12.182 51.846,12.182 C52.374,12.182 52.793,12.32 53.103,12.596 C53.413,12.872 53.568,13.23 53.568,13.67 C53.568,14.006 53.485,14.297 53.319,14.543 C53.153,14.789 52.934,15.009 52.662,15.203 C52.39,15.397 52.091,15.583 51.765,15.761 C51.439,15.939 51.113,16.124 50.787,16.316 C50.461,16.508 50.161,16.725 49.887,16.967 C49.613,17.209 49.393,17.492 49.227,17.816 C49.061,18.14 48.978,18.524 48.978,18.968 L48.978,18.968 L48.978,20 L54.792,20 Z M61.944,20 L61.944,19.016 L57.366,19.016 L57.366,18.842 C57.366,18.51 57.448,18.224 57.612,17.984 C57.776,17.744 57.992,17.531 58.26,17.345 C58.528,17.159 58.824,16.981 59.148,16.811 C59.472,16.641 59.794,16.464 60.114,16.28 C60.434,16.096 60.729,15.887 60.999,15.653 C61.269,15.419 61.486,15.142 61.65,14.822 C61.814,14.502 61.896,14.118 61.896,13.67 C61.896,13.178 61.779,12.747 61.545,12.377 C61.311,12.007 60.98,11.719 60.552,11.513 C60.124,11.307 59.62,11.204 59.04,11.204 C58.372,11.204 57.81,11.328 57.354,11.576 C56.898,11.824 56.552,12.155 56.316,12.569 C56.08,12.983 55.956,13.44 55.944,13.94 L55.944,13.94 L57.048,13.94 C57.092,13.408 57.286,12.982 57.63,12.662 C57.974,12.342 58.43,12.182 58.998,12.182 C59.526,12.182 59.945,12.32 60.255,12.596 C60.565,12.872 60.72,13.23 60.72,13.67 C60.72,14.006 60.637,14.297 60.471,14.543 C60.305,14.789 60.086,15.009 59.814,15.203 C59.542,15.397 59.243,15.583 58.917,15.761 C58.591,15.939 58.265,16.124 57.939,16.316 C57.613,16.508 57.313,16.725 57.039,16.967 C56.765,17.209 56.545,17.492 56.379,17.816 C56.213,18.14 56.13,18.524 56.13,18.968 L56.13,18.968 L56.13,20 L61.944,20 Z M66.204,20.132 C67.156,20.132 67.91,19.757 68.466,19.007 C69.022,18.257 69.3,17.148 69.3,15.68 C69.3,14.204 69.021,13.089 68.463,12.335 C67.905,11.581 67.156,11.204 66.216,11.204 C65.588,11.204 65.042,11.372 64.578,11.708 C64.114,12.044 63.754,12.546 63.498,13.214 C63.242,13.882 63.114,14.71 63.114,15.698 C63.114,17.162 63.392,18.267 63.948,19.013 C64.504,19.759 65.256,20.132 66.204,20.132 Z M66.216,19.172 C65.596,19.172 65.122,18.898 64.794,18.35 C64.466,17.802 64.302,16.914 64.302,15.686 C64.302,14.438 64.467,13.535 64.797,12.977 C65.127,12.419 65.598,12.14 66.21,12.14 C66.826,12.14 67.295,12.417 67.617,12.971 C67.939,13.525 68.1,14.43 68.1,15.686 C68.1,16.918 67.941,17.807 67.623,18.353 C67.305,18.899 66.836,19.172 66.216,19.172 Z M71.862,20 L71.862,18.584 L70.542,18.584 L70.542,20 L71.862,20 Z M76.254,20.132 C77.206,20.132 77.96,19.757 78.516,19.007 C79.072,18.257 79.35,17.148 79.35,15.68 C79.35,14.204 79.071,13.089 78.513,12.335 C77.955,11.581 77.206,11.204 76.266,11.204 C75.638,11.204 75.092,11.372 74.628,11.708 C74.164,12.044 73.804,12.546 73.548,13.214 C73.292,13.882 73.164,14.71 73.164,15.698 C73.164,17.162 73.442,18.267 73.998,19.013 C74.554,19.759 75.306,20.132 76.254,20.132 Z M76.266,19.172 C75.646,19.172 75.172,18.898 74.844,18.35 C74.516,17.802 74.352,16.914 74.352,15.686 C74.352,14.438 74.517,13.535 74.847,12.977 C75.177,12.419 75.648,12.14 76.26,12.14 C76.876,12.14 77.345,12.417 77.667,12.971 C77.989,13.525 78.15,14.43 78.15,15.686 C78.15,16.918 77.991,17.807 77.673,18.353 C77.355,18.899 76.886,19.172 76.266,19.172 Z M83.52,20.132 C84.472,20.132 85.226,19.757 85.782,19.007 C86.338,18.257 86.616,17.148 86.616,15.68 C86.616,14.204 86.337,13.089 85.779,12.335 C85.221,11.581 84.472,11.204 83.532,11.204 C82.904,11.204 82.358,11.372 81.894,11.708 C81.43,12.044 81.07,12.546 80.814,13.214 C80.558,13.882 80.43,14.71 80.43,15.698 C80.43,17.162 80.708,18.267 81.264,19.013 C81.82,19.759 82.572,20.132 83.52,20.132 Z M83.532,19.172 C82.912,19.172 82.438,18.898 82.11,18.35 C81.782,17.802 81.618,16.914 81.618,15.686 C81.618,14.438 81.783,13.535 82.113,12.977 C82.443,12.419 82.914,12.14 83.526,12.14 C84.142,12.14 84.611,12.417 84.933,12.971 C85.255,13.525 85.416,14.43 85.416,15.686 C85.416,16.918 85.257,17.807 84.939,18.353 C84.621,18.899 84.152,19.172 83.532,19.172 Z" id="-$220.00" fill="#FFFFFF" fill-rule="nonzero"></path>
                    </g>
                    <path d="M155.053,147.928 L155.05,145.414 L157.559,145.408 L157.559,144.407 L155.049,144.41 L155.046,141.887 L154.038,141.887 L154.044,144.411 L151.518,144.414 L151.518,145.422 L154.046,145.416 L154.052,147.928 L155.053,147.928 Z M163.733,151.463 L163.733,150.114 L163.761143,150.111143 C164.144,150.072667 164.499048,149.995714 164.826286,149.880286 L165.0665,149.7865 C165.614833,149.550833 166.040667,149.2265 166.344,148.8135 C166.647333,148.4005 166.799,147.925667 166.799,147.389 C166.799,146.731 166.615833,146.151167 166.2495,145.6495 C165.883167,145.147833 165.270667,144.778 164.412,144.54 L164.412,144.54 L162.732,144.064 C162.064667,143.858667 161.602667,143.649833 161.346,143.4375 C161.089333,143.225167 160.961,142.937 160.961,142.573 C160.961,142.288333 161.024,142.038667 161.15,141.824 C161.276,141.609333 161.445167,141.429667 161.6575,141.285 C161.869833,141.140333 162.110167,141.031833 162.3785,140.9595 C162.646833,140.887167 162.925667,140.851 163.215,140.851 C163.826333,140.851 164.301167,141.006167 164.6395,141.3165 C164.977833,141.626833 165.198333,142.083 165.301,142.685 L165.301,142.685 L166.617,142.615 C166.598333,142.101667 166.450167,141.628 166.1725,141.194 C165.894833,140.76 165.505167,140.411167 165.0035,140.1475 C164.689958,139.982708 164.339503,139.869414 163.952133,139.807617 L163.817,139.79 L163.817,138.366 L162.62,138.366 L162.62,139.783 C162.237048,139.822905 161.881952,139.903429 161.554714,140.024571 L161.3145,140.123 C160.766167,140.370333 160.336833,140.715667 160.0265,141.159 C159.716167,141.602333 159.563333,142.115667 159.568,142.699 C159.572667,143.389667 159.794333,143.940333 160.233,144.351 C160.671667,144.761667 161.266667,145.062667 162.018,145.254 L162.018,145.254 L163.761,145.709 C164.335,145.863 164.753833,146.073 165.0175,146.339 C165.281167,146.605 165.413,146.959667 165.413,147.403 C165.413,147.734333 165.306833,148.021333 165.0945,148.264 C164.882167,148.506667 164.6045,148.695667 164.2615,148.831 C163.9185,148.966333 163.551,149.034 163.159,149.034 C162.505667,149.034 161.955,148.891667 161.507,148.607 C161.059,148.322333 160.760333,147.895333 160.611,147.326 L160.611,147.326 L159.253,147.41 C159.388333,148.310667 159.807167,148.990833 160.5095,149.4505 C161.020288,149.784803 161.627957,149.997541 162.332508,150.088715 L162.536,150.111 L162.536,151.463 L163.733,151.463 Z M172.252,150.154 C172.994,150.154 173.640333,150.0105 174.191,149.7235 C174.741667,149.4365 175.168667,149.034 175.472,148.516 C175.775333,147.998 175.927,147.389 175.927,146.689 C175.927,145.970333 175.770667,145.367167 175.458,144.8795 C175.145333,144.391833 174.731167,144.023167 174.2155,143.7735 C173.699833,143.523833 173.136333,143.399 172.525,143.399 C172.058333,143.399 171.6255,143.4655 171.2265,143.5985 C170.8275,143.7315 170.46,143.954333 170.124,144.267 L170.124,144.267 L170.383,140.998 L175.283,140.998 L175.318,139.878 L169.277,139.878 L168.822,145.142 L169.914,145.485 C169.946667,145.499 169.97,145.507167 169.984,145.5095 C169.998,145.511833 170.019,145.506 170.047,145.492 C170.303667,145.207333 170.548667,144.995 170.782,144.855 C171.015333,144.715 171.251,144.6205 171.489,144.5715 C171.727,144.5225 171.983667,144.498 172.259,144.498 C172.679,144.498 173.062833,144.591333 173.4105,144.778 C173.758167,144.964667 174.034667,145.224833 174.24,145.5585 C174.445333,145.892167 174.548,146.283 174.548,146.731 C174.548,147.449667 174.329833,148.017833 173.8935,148.4355 C173.457167,148.853167 172.879667,149.062 172.161,149.062 C171.717667,149.062 171.321,148.978 170.971,148.81 C170.621,148.642 170.318833,148.408667 170.0645,148.11 C169.810167,147.811333 169.599,147.470667 169.431,147.088 L169.431,147.088 L168.311,147.557 C168.488333,148.065667 168.767167,148.516 169.1475,148.908 C169.527833,149.3 169.984,149.605667 170.516,149.825 C171.048,150.044333 171.626667,150.154 172.252,150.154 Z M181.128,150.154 C181.846667,150.154 182.469667,150.007 182.997,149.713 C183.524333,149.419 183.9315,149.011833 184.2185,148.4915 C184.5055,147.971167 184.649,147.372667 184.649,146.696 C184.649,146.033333 184.509,145.462833 184.229,144.9845 C183.949,144.506167 183.559333,144.1375 183.06,143.8785 C182.560667,143.6195 181.977333,143.49 181.31,143.49 C180.908667,143.49 180.535333,143.561167 180.19,143.7035 C179.844667,143.845833 179.5425,144.0465 179.2835,144.3055 C179.0245,144.5645 178.832,144.864333 178.706,145.205 C178.65,144.257667 178.713,143.4585 178.895,142.8075 C179.077,142.1565 179.3675,141.661833 179.7665,141.3235 C180.1655,140.985167 180.663667,140.816 181.261,140.816 C181.797667,140.816 182.243333,140.956 182.598,141.236 C182.952667,141.516 183.197667,141.896333 183.333,142.377 L183.333,142.377 L184.551,142.377 C184.476333,141.821667 184.282667,141.348 183.97,140.956 C183.657333,140.564 183.264167,140.263 182.7905,140.053 C182.316833,139.843 181.8,139.738 181.24,139.738 C180.386,139.738 179.665,139.9585 179.077,140.3995 C178.489,140.8405 178.042167,141.462333 177.7365,142.265 C177.430833,143.067667 177.278,144.010333 177.278,145.093 C177.278,146.147667 177.4355,147.051833 177.7505,147.8055 C178.0655,148.559167 178.511167,149.139 179.0875,149.545 C179.663833,149.951 180.344,150.154 181.128,150.154 Z M181.114,149.083 C180.670667,149.083 180.281,148.969833 179.945,148.7435 C179.609,148.517167 179.348833,148.2045 179.1645,147.8055 C178.980167,147.4065 178.890333,146.950333 178.895,146.437 C178.895,146.091667 179.001167,145.776667 179.2135,145.492 C179.425833,145.207333 179.701167,144.9775 180.0395,144.8025 C180.377833,144.6275 180.731333,144.54 181.1,144.54 C181.562,144.54 181.954,144.628667 182.276,144.806 C182.598,144.983333 182.841833,145.237667 183.0075,145.569 C183.173167,145.900333 183.256,146.297 183.256,146.759 C183.256,147.216333 183.163833,147.62 182.9795,147.97 C182.795167,148.32 182.542,148.593 182.22,148.789 C181.898,148.985 181.529333,149.083 181.114,149.083 Z M189.507,150.154 C190.617667,150.154 191.497333,149.7165 192.146,148.8415 C192.794667,147.9665 193.119,146.672667 193.119,144.96 C193.119,143.238 192.7935,141.937167 192.1425,141.0575 C191.4915,140.177833 190.617667,139.738 189.521,139.738 C188.788333,139.738 188.151333,139.934 187.61,140.326 C187.068667,140.718 186.648667,141.303667 186.35,142.083 C186.051333,142.862333 185.902,143.828333 185.902,144.981 C185.902,146.689 186.226333,147.978167 186.875,148.8485 C187.523667,149.718833 188.401,150.154 189.507,150.154 Z M189.521,149.034 C188.797667,149.034 188.244667,148.714333 187.862,148.075 C187.479333,147.435667 187.288,146.399667 187.288,144.967 C187.288,143.511 187.4805,142.4575 187.8655,141.8065 C188.2505,141.1555 188.8,140.83 189.514,140.83 C190.232667,140.83 190.779833,141.153167 191.1555,141.7995 C191.531167,142.445833 191.719,143.501667 191.719,144.967 C191.719,146.404333 191.5335,147.4415 191.1625,148.0785 C190.7915,148.7155 190.244333,149.034 189.521,149.034 Z M196.108,150 L196.108,148.348 L194.568,148.348 L194.568,150 L196.108,150 Z M201.232,150.154 C202.342667,150.154 203.222333,149.7165 203.871,148.8415 C204.519667,147.9665 204.844,146.672667 204.844,144.96 C204.844,143.238 204.5185,141.937167 203.8675,141.0575 C203.2165,140.177833 202.342667,139.738 201.246,139.738 C200.513333,139.738 199.876333,139.934 199.335,140.326 C198.793667,140.718 198.373667,141.303667 198.075,142.083 C197.776333,142.862333 197.627,143.828333 197.627,144.981 C197.627,146.689 197.951333,147.978167 198.6,148.8485 C199.248667,149.718833 200.126,150.154 201.232,150.154 Z M201.246,149.034 C200.522667,149.034 199.969667,148.714333 199.587,148.075 C199.204333,147.435667 199.013,146.399667 199.013,144.967 C199.013,143.511 199.2055,142.4575 199.5905,141.8065 C199.9755,141.1555 200.525,140.83 201.239,140.83 C201.957667,140.83 202.504833,141.153167 202.8805,141.7995 C203.256167,142.445833 203.444,143.501667 203.444,144.967 C203.444,146.404333 203.2585,147.4415 202.8875,148.0785 C202.5165,148.7155 201.969333,149.034 201.246,149.034 Z M209.709,150.154 C210.819667,150.154 211.699333,149.7165 212.348,148.8415 C212.996667,147.9665 213.321,146.672667 213.321,144.96 C213.321,143.238 212.9955,141.937167 212.3445,141.0575 C211.6935,140.177833 210.819667,139.738 209.723,139.738 C208.990333,139.738 208.353333,139.934 207.812,140.326 C207.270667,140.718 206.850667,141.303667 206.552,142.083 C206.253333,142.862333 206.104,143.828333 206.104,144.981 C206.104,146.689 206.428333,147.978167 207.077,148.8485 C207.725667,149.718833 208.603,150.154 209.709,150.154 Z M209.723,149.034 C208.999667,149.034 208.446667,148.714333 208.064,148.075 C207.681333,147.435667 207.49,146.399667 207.49,144.967 C207.49,143.511 207.6825,142.4575 208.0675,141.8065 C208.4525,141.1555 209.002,140.83 209.716,140.83 C210.434667,140.83 210.981833,141.153167 211.3575,141.7995 C211.733167,142.445833 211.921,143.501667 211.921,144.967 C211.921,146.404333 211.7355,147.4415 211.3645,148.0785 C210.9935,148.7155 210.446333,149.034 209.723,149.034 Z" id="+$560.00" fill="#46C8B8" fill-rule="nonzero"></path>
                </g>
            </g>
        </g>
    </g>
</svg>