<svg width="66" height="66" viewBox="0 0 66 66" fill="none" xmlns="http://www.w3.org/2000/svg">
<path d="M33 66C51.2254 66 66 51.2254 66 33C66 14.7746 51.2254 0 33 0C14.7746 0 0 14.7746 0 33C0 51.2254 14.7746 66 33 66Z" fill="#EAF6FF"/>
<path d="M52.9206 32.0241C52.7543 31.4815 52.338 31.0225 51.7969 30.814C51.2559 30.6053 50.6733 30.6053 50.1325 30.8976L42.1841 35.154C42.2674 35.6131 42.2256 36.0721 42.1426 36.5312C41.7263 38.3674 40.0619 39.6194 38.1893 39.4107L30.99 38.7013C30.3241 38.6178 29.8248 38.0335 29.9081 37.3658C29.9914 36.698 30.574 36.1973 31.2399 36.2808L38.4392 36.9902C39.0633 37.0738 39.6877 36.6147 39.8125 35.9886C39.9373 35.3627 39.6043 34.7785 39.0217 34.5278L31.5311 31.5647C30.1163 31.0221 28.4933 31.064 27.0782 31.6899L23 33.5677V45.2526L34.3192 46.7134C36.6495 47.0057 38.98 46.296 40.7277 44.7103L52.3798 34.0687C52.9206 33.568 53.1287 32.7751 52.9206 32.024L52.9206 32.0241Z" fill="#51AAED"/>
<path d="M18.4368 31.7778H14.8263C13.8068 31.7778 13 32.5788 13 33.5904V45.5207C13 46.5326 13.8071 47.3333 14.8263 47.3333H18.3941C19.4136 47.3333 20.2204 46.5323 20.2204 45.5207L20.2207 33.5904C20.2633 32.5788 19.4136 31.7778 18.4367 31.7778H18.4368Z" fill="#51AAED"/>
<path d="M24.7599 27.403H36.3378C37.222 29.6522 39.4111 31.2222 41.9372 31.2222C45.3054 31.2222 47.9999 28.4639 47.9999 25.1111C47.9999 21.716 45.2635 19 41.9372 19C39.411 19 37.222 20.5701 36.3378 22.8192H34.1907C34.1064 22.8192 33.9801 22.8616 33.9381 22.9465L32.8013 24.0924C32.633 24.2621 32.4225 24.2621 32.2539 24.0924L31.1171 22.9465C31.0328 22.8616 30.9488 22.8192 30.8645 22.8192H29.77C29.6857 22.8192 29.5594 22.8616 29.5174 22.9465L28.3806 24.0924C28.2123 24.2621 28.0017 24.2621 27.8332 24.0924L26.6964 22.9465C26.6121 22.8616 26.5281 22.8192 26.4438 22.8192H24.8439C24.7596 22.8192 24.6333 22.8616 24.5913 22.9042L22.5705 24.8138C22.4023 24.9834 22.4023 25.2383 22.5705 25.3656L24.5913 27.2752C24.5916 27.3605 24.6759 27.4028 24.7599 27.4028L24.7599 27.403ZM43.9581 23.3715C44.8843 23.3715 45.6843 24.1352 45.6843 25.0688C45.6843 26.0025 44.9266 26.8088 43.9581 26.8088C43.0319 26.8088 42.2319 26.0451 42.2319 25.0688C42.2739 24.1352 43.0319 23.3715 43.9581 23.3715V23.3715Z" fill="#51AAED"/>
</svg>
