<?xml version="1.0" encoding="UTF-8"?>
<svg width="91px" height="91px" viewBox="0 0 91 91" version="1.1" xmlns="http://www.w3.org/2000/svg" xmlns:xlink="http://www.w3.org/1999/xlink">
    <title>4-Loan-AUS</title>
    <g id="Page-1" stroke="none" stroke-width="1" fill="none" fill-rule="evenodd">
        <g id="Icons" transform="translate(-1256.000000, -968.000000)">
            <g id="Loan-AUS" transform="translate(1256.000000, 968.000000)">
                <circle id="Oval" fill="#FFEFE8" cx="45.5" cy="45.5" r="45.5"></circle>
                <g id="Icons/13-Insurance" transform="translate(21.233333, 21.233333)" fill="#F8783D">
                    <path d="M8.57607668,26.9342754 C8.9967404,26.9342754 9.31575149,27.1661249 9.4213818,27.5416543 L9.44853564,27.6720313 L9.45772942,27.8109763 L9.45692792,29.4835998 L11.8198044,29.4846781 C14.7073682,29.4846781 17.6230667,30.2934797 20.1357474,31.7638586 L20.5748904,32.0301748 L21.0051396,32.3100464 L21.324681,32.5601638 L28.2647497,32.5601638 C30.3848338,32.5601638 32.0197373,34.3583097 31.7856629,36.4530391 C31.7289589,36.9041236 31.5909584,37.3474101 31.3767103,37.7595878 L31.2390522,38.0029748 L31.2069711,38.0507026 L33.2051613,38.1919277 L43.2361649,35.0420504 C43.5821916,34.927356 43.9362345,34.8614896 44.2934154,34.8440116 L44.5618133,34.839969 L44.7752458,34.8498728 C46.8601085,35.0038198 48.5333333,36.752044 48.5333333,38.9127294 C48.5333333,39.1858557 48.3784031,39.4553809 48.137739,39.6100686 L48.0295499,39.6690081 L28.0077047,46.6074486 C27.4345761,46.8211647 26.7701079,46.9155556 26.0016838,46.9155556 C25.6401844,46.9155556 25.3007474,46.8892084 24.9492128,46.833677 L24.5923805,46.7683124 L24.2303142,46.6852488 L9.45692792,42.3064059 L9.45772942,43.4134401 C9.45772942,43.7852632 9.27350503,44.0772194 8.96733026,44.211279 L8.84691993,44.2539975 L8.71580653,44.2809988 L8.57607668,44.290141 L0.881652743,44.290141 C0.460989023,44.290141 0.141977928,44.0582915 0.0363476247,43.6827621 L0.00919377795,43.5523851 L0,43.4134401 L0,27.8109763 C0,27.3926753 0.233158995,27.0754559 0.610809489,26.9704189 L0.741922895,26.9434175 L0.881652743,26.9342754 L8.57607668,26.9342754 Z M11.7443689,31.313045 L9.38182242,31.313045 L9.38182242,40.5421742 L24.6747185,45.0909213 C24.9731459,45.1651091 25.2768503,45.2134993 25.5787196,45.2349063 L25.8797138,45.247275 L26.1900007,45.2411395 C26.3969545,45.2305652 26.6012634,45.2069128 26.8003411,45.170479 L27.0947108,45.1062794 L27.393577,45.0190051 L46.5921414,38.4548289 L46.5728414,38.3811927 C46.3078706,37.5375755 45.5654306,36.9072808 44.6873682,36.7735214 L44.4972607,36.7525619 L44.3254714,36.7468117 L44.1467092,36.7543626 L43.9707511,36.7750548 L43.798787,36.8083114 L43.6167962,36.8579978 L33.3943656,40.0894777 L33.0832199,40.0891318 L20.8471028,39.1868774 C20.4130077,39.100546 20.0658507,38.6756756 20.0683227,38.2127979 C20.1362202,37.8752173 20.4140423,37.586572 20.7557718,37.4788628 L20.8866309,37.447211 L21.0324934,37.4362907 L28.0475127,37.9613383 L28.1335574,37.9655741 L28.2148303,37.9660634 L28.3897377,37.9548611 C29.2369333,37.8611361 29.8871617,37.203441 29.9490216,36.345597 C30.0727978,35.4224891 29.4264226,34.5855255 28.5238589,34.4189119 L28.3517514,34.3956701 L28.1893142,34.3885775 L20.9330121,34.3877546 L20.807147,34.3727608 C20.6988103,34.3491952 20.6174716,34.3144413 20.4180207,34.2128692 C18.0605007,32.4369003 15.1725203,31.4182232 12.2123048,31.3207955 L11.7443689,31.313045 Z M26.0997273,1.61777778 C29.3427494,1.61777778 32.4002326,2.88128355 34.7879029,5.17895452 C37.1390261,7.44145588 38.4475804,10.5443289 38.4475804,13.8212673 C38.4475804,17.0634422 37.163932,20.1747617 34.864826,22.5371368 C32.7446653,24.6453896 29.9404853,25.9394898 27.0025619,26.1457288 L26.5820081,26.1677615 L26.0997273,26.1747805 C19.3276758,26.1747805 13.828231,20.7295932 13.7518822,13.9727132 C13.6786772,7.49406054 18.827012,2.07919853 25.3255162,1.64496821 L25.6749199,1.62649281 L26.0997273,1.61777778 Z M27.5992889,6.47111111 L24.9623111,6.47111111 L24.9623111,8.04197333 L24.8429251,8.06317421 C24.5711984,8.11759945 24.3080099,8.18835226 24.0533597,8.27543265 L23.8015556,8.36795556 C23.0546815,8.66185185 22.4601481,9.08786667 22.0179556,9.646 C21.575763,10.2041333 21.3600593,10.8768593 21.3708444,11.6641778 C21.3870222,12.6564148 21.6755259,13.4423852 22.2363556,14.0220889 C22.7504494,14.553484 23.4118097,14.9024952 24.2204364,15.0691225 L24.4446222,15.1100444 L26.2727111,15.4174222 C26.7688296,15.4983111 27.1382222,15.6021185 27.3808889,15.7288444 C27.6235556,15.8555704 27.7448889,16.0968889 27.7448889,16.4528 C27.7448889,16.6415407 27.6936593,16.8168 27.5912,16.9785778 C27.4887407,17.1403556 27.3310074,17.2711259 27.118,17.3708889 C26.9049926,17.4706519 26.6340148,17.5205333 26.3050667,17.5205333 C25.7550222,17.5205333 25.3060889,17.4045926 24.9582667,17.1727111 C24.6539222,16.9698148 24.4476345,16.6987949 24.3394035,16.3596514 L24.2990222,16.2101333 L21.0311111,16.2101333 C21.138963,17.5097481 21.6593481,18.4548 22.5922667,19.0452889 C23.2142123,19.4389481 23.9739687,19.7013877 24.8715358,19.8326074 L24.9623111,19.84528 L24.9623111,21.1767111 L27.5992889,21.1767111 L27.5992889,19.8396178 L27.8256779,19.8012005 C28.1020982,19.7492719 28.3638387,19.6817646 28.6108993,19.5986787 L28.8530667,19.5104 C29.5648889,19.2299852 30.1135852,18.8295852 30.4991556,18.3092 C30.8847259,17.7888148 31.0775111,17.1700148 31.0775111,16.4528 C31.0775111,15.4659556 30.821363,14.6462815 30.3090667,13.9937778 C29.833363,13.3878815 29.0902995,12.9633249 28.0798762,12.7201079 L27.8419556,12.6672 L26.0138667,12.2951111 C25.506963,12.1872593 25.1672296,12.0564889 24.9946667,11.9028 C24.8221037,11.7491111 24.7358222,11.5401481 24.7358222,11.2759111 C24.7358222,11.1680593 24.761437,11.0602074 24.8126667,10.9523556 C24.8638963,10.8445037 24.9515259,10.7460889 25.0755556,10.6571111 C25.1995852,10.5681333 25.3640593,10.4953333 25.5689778,10.4387111 C25.7738963,10.3820889 26.0300444,10.3537778 26.3374222,10.3537778 C26.8874667,10.3537778 27.2433778,10.4751111 27.4051556,10.7177778 C27.5399704,10.92 27.6298469,11.1615432 27.6747852,11.4424074 L27.6963556,11.6156444 L30.8833778,11.6156444 C30.9211259,10.92 30.7526074,10.2931111 30.3778222,9.73497778 C30.003037,9.17684444 29.4637778,8.736 28.7600444,8.41244444 C28.4785511,8.28302222 28.1769973,8.17948444 27.8553831,8.10183111 L27.5992889,8.04682667 L27.5992889,6.47111111 Z" id="Loan-AUS"></path>
                </g>
            </g>
        </g>
    </g>
</svg>