<svg width="66" height="66" xmlns="http://www.w3.org/2000/svg"><g fill="none" fill-rule="evenodd"><circle fill="#F5F8FC" cx="33" cy="33" r="33"/><path d="M49 48a1 1 0 01-1 1H18a1 1 0 01-1-1V18a1 1 0 112 0v29h3v-6a1 1 0 011-1h4a1 1 0 011 1v6h2V37a1 1 0 011-1h4a1 1 0 011 1v10h2V33a1 1 0 011-1h4a1 1 0 011 1v14h4a1 1 0 011 1zM22.414 37.91l2.746-1.248a50.832 50.832 0 0014.958-10.366L43 23.414V28a1 1 0 102 0v-7a1 1 0 00-1-1h-7a1 1 0 100 2h4.586l-2.882 2.882a48.84 48.84 0 01-14.372 9.96l-2.746 1.248a1 1 0 10.828 1.82z" fill="#1B6798" fill-rule="nonzero"/></g></svg>