<svg xmlns="http://www.w3.org/2000/svg" width="65" height="64" fill="none"><rect x=".85" width="64" height="64" rx="32" fill="#F4F8FA"></rect><path d="M47.4 44.017 36.618 29.544v-7.807l2.454-3.158c.292-.35.35-.702.175-1.053-.175-.35-.467-.526-.876-.526H27.328c-.409 0-.7.175-.876.526-.175.351-.117.702.175 1.053l2.454 3.158v7.807l-10.78 14.473c-.35.41-.497.848-.438 1.316.058.41.263.79.613 1.14.35.352.789.527 1.315.527h26.118c.526 0 .965-.175 1.315-.526.35-.351.555-.731.614-1.14.058-.469-.088-.907-.439-1.317z" fill="#2E9C8E"></path></svg>