<svg xmlns="http://www.w3.org/2000/svg" width="65" height="64" fill="none"><rect x=".1" width="64" height="64" rx="32" fill="#F4F8FA"></rect><path fill-rule="evenodd" clip-rule="evenodd" d="M47.215 16.885c-.59-.59-1.27-.885-2.043-.885H19.028c-.772 0-1.453.295-2.043.885-.59.59-.885 1.271-.885 2.043v26.144c0 .772.295 1.453.885 2.043.59.59 1.271.885 2.043.885h26.144c.772 0 1.453-.295 2.043-.885.59-.59.885-1.271.885-2.043V18.928c0-.772-.295-1.453-.885-2.043zm-22.4 22.4h14.57V33.43h2.86v8.715h-17.43v4.357l-5.787-5.787 5.787-5.787v4.357zm14.57-14.57h-14.57v5.855h-2.86v-8.715h17.43v-4.357l5.787 5.787-5.787 5.787v-4.357z" fill="#2E9C8E"></path></svg>