<?xml version="1.0" encoding="UTF-8"?>
<svg width="60px" height="60px" viewBox="0 0 60 60" version="1.1" xmlns="http://www.w3.org/2000/svg" xmlns:xlink="http://www.w3.org/1999/xlink">
    <title>4-Products/7-Mortgage-AUS</title>
    <g id="4-Products/7-Mortgage-AUS" stroke="none" stroke-width="1" fill="none" fill-rule="evenodd">
        <g id="Mortgage-AUS">
            <circle id="Oval" fill="#F7F0E5" cx="30" cy="30" r="30"></circle>
            <g id="Icons/13-Insurance" transform="translate(14.000000, 14.000000)" fill="#B7720B">
                <path d="M16,0 L31.1887843,12.1978124 L29.1506849,12.1978124 C28.9270284,12.1978124 28.7427657,12.3656989 28.715741,12.5826656 L28.7123288,12.637861 L28.7123288,30.2398055 C28.7123288,30.4641272 28.8793872,30.6492692 29.0956597,30.6764253 L29.1506849,30.6798542 L32,30.6798542 L32,32 L0,32 L0,30.6798542 L2.84931507,30.6798542 C3.07297156,30.6798542 3.25723434,30.5119676 3.28425905,30.295001 L3.28767123,30.2398055 L3.28767123,12.637861 C3.28767123,12.4135393 3.1206128,12.2283973 2.90434029,12.2012413 L2.84931507,12.1978124 L0.811215737,12.1978124 L16,0 Z M17.1482555,12.8 L15.1884058,12.8 L15.1884058,13.9394206 L15.099676,13.9547986 C14.8977237,13.9942758 14.7021173,14.0455962 14.5128566,14.1087597 L14.3257112,14.1758709 C13.7706209,14.3890478 13.3287529,14.6980565 13.0001074,15.102897 C12.6714618,15.5077374 12.5111469,15.9956973 12.5191626,16.5667767 C12.5311863,17.2864931 12.7456074,17.8565945 13.1624262,18.277081 C13.54451,18.662527 14.036045,18.9156813 14.6370311,19.036544 L14.80365,19.0662266 L16.1623188,19.2891823 C16.5310431,19.3478548 16.8055824,19.4231512 16.9859367,19.5150715 C17.1662909,19.6069918 17.2564681,19.7820315 17.2564681,20.0401907 C17.2564681,20.1770933 17.2183933,20.3042171 17.1422437,20.4215622 C17.0660941,20.5389072 16.9488638,20.6337612 16.7905529,20.7061239 C16.6322419,20.7784867 16.4308463,20.8146681 16.1863661,20.8146681 C15.7775631,20.8146681 15.4439077,20.7305708 15.1853999,20.5623762 C14.9592056,20.415206 14.8058888,20.2186224 14.7254495,19.9726256 L14.6954375,19.8641731 L12.2666667,19.8641731 C12.3468241,20.8068451 12.7335838,21.4923359 13.4269458,21.9206454 C13.8891871,22.2061851 14.4538518,22.3965448 15.1209399,22.4917247 L15.1884058,22.5009168 L15.1884058,23.4666667 L17.1482555,23.4666667 L17.1482555,22.4968097 L17.3165119,22.4689438 C17.5219525,22.4312775 17.7164828,22.3823113 17.9001027,22.3220452 L18.0800859,22.2580125 C18.6091251,22.0546144 19.0169261,21.7641853 19.303489,21.3867253 C19.5900519,21.0092654 19.7333333,20.5604205 19.7333333,20.0401907 C19.7333333,19.3243858 19.5429594,18.7298374 19.1622115,18.2565457 C18.8086599,17.8170604 18.2564016,17.5091095 17.5054367,17.3326927 L17.3286098,17.2943161 L15.969941,17.0244224 C15.5932009,16.9461924 15.340705,16.8513385 15.212453,16.7398607 C15.0842011,16.6283828 15.0200751,16.4768121 15.0200751,16.2851485 C15.0200751,16.2069185 15.0391125,16.1286884 15.0771873,16.0504584 C15.1152621,15.9722283 15.1803901,15.9008434 15.2725711,15.8363036 C15.3647522,15.7717638 15.4869923,15.7189586 15.6392915,15.6778878 C15.7915906,15.636817 15.9819646,15.6162816 16.2104133,15.6162816 C16.6192163,15.6162816 16.8837359,15.7042904 17.0039721,15.880308 C17.1041689,16.0269894 17.1709668,16.2021921 17.2043657,16.4059161 L17.2203972,16.5315732 L19.5890499,16.5315732 C19.617105,16.0269894 19.491859,15.5722772 19.2133119,15.1674367 C18.9347647,14.7625963 18.5339775,14.4428309 18.0109501,14.2081408 C17.8017391,14.1142648 17.5776189,14.0391639 17.3385894,13.9828383 L17.1482555,13.942941 L17.1482555,12.8 Z" id="Mortgage-AUS"></path>
            </g>
        </g>
    </g>
</svg>