<svg xmlns="http://www.w3.org/2000/svg" width="65" height="64" viewBox="0 0 65 64" fill="none"><rect x="0.600006" width="64" height="64" rx="32" fill="#F4F8FA"></rect><path fill-rule="evenodd" clip-rule="evenodd" d="M20.0085 29.9853V46H45.1916V29.9853H50.6L32.6 14L14.6 29.9853H20.0085ZM31.768 39.3264C30.8474 39.2189 30.0687 38.9608 29.432 38.552C28.568 37.992 28.072 37.1307 27.944 35.968L30.376 35.92C30.504 36.448 30.7787 36.8507 31.2 37.128C31.6267 37.4 32.16 37.536 32.8 37.536C33.184 37.536 33.5227 37.4747 33.816 37.352C34.1147 37.224 34.3493 37.0533 34.52 36.84C34.6907 36.6213 34.776 36.3733 34.776 36.096C34.776 35.6693 34.64 35.352 34.368 35.144C34.096 34.9307 33.6773 34.76 33.112 34.632L31.216 34.224C30.336 34.048 29.6293 33.6987 29.096 33.176C28.568 32.648 28.2987 31.9413 28.288 31.056C28.2827 30.3307 28.4773 29.704 28.872 29.176C29.272 28.6427 29.8133 28.232 30.496 27.944C30.9042 27.7731 31.3416 27.6529 31.808 27.5834V26H33.832V27.5928C34.2866 27.6691 34.6999 27.7995 35.072 27.984C35.712 28.2933 36.2027 28.712 36.544 29.24C36.8907 29.7627 37.0587 30.3413 37.048 30.976L34.688 31.016C34.6133 30.504 34.4427 30.1013 34.176 29.808C33.9093 29.5147 33.4667 29.368 32.848 29.368C32.528 29.368 32.2427 29.4027 31.992 29.472C31.7413 29.5413 31.5253 29.64 31.344 29.768C31.1627 29.8907 31.024 30.0373 30.928 30.208C30.8373 30.3787 30.792 30.5707 30.792 30.784C30.792 31.12 30.904 31.3867 31.128 31.584C31.3573 31.776 31.7867 31.9547 32.416 32.12L34.28 32.576C35.3307 32.8267 36.088 33.256 36.552 33.864C37.0213 34.472 37.256 35.2107 37.256 36.08C37.256 36.7467 37.072 37.328 36.704 37.824C36.3413 38.32 35.8267 38.704 35.16 38.976C34.7465 39.1447 34.2878 39.2611 33.784 39.3252V40.752H31.768V39.3264Z" fill="#2E9C8E"></path></svg>